<<<<<<< HEAD
<svg width="20" height="20" viewBox="0 0 20 20" fill="none" xmlns="http://www.w3.org/2000/svg">
<path d="M10 11.667C10.9205 11.667 11.6667 10.9205 11.6667 10C11.6667 9.07953 10.9205 8.33337 10 8.33337C9.07957 8.33337 8.33337 9.07953 8.33337 10C8.33337 10.9205 9.07957 11.667 10 11.667Z" stroke="#9CA3AF" stroke-width="1.5" stroke-linecap="round" stroke-linejoin="round"/>
<path d="M18.3334 10C16.1109 13.8892 13.3334 15.8333 10 15.8333C6.66669 15.8333 3.88919 13.8892 1.66669 10C3.88919 6.11084 6.66669 4.16668 10 4.16668C13.3334 4.16668 16.1109 6.11084 18.3334 10Z" stroke="#9CA3AF" stroke-width="1.5" stroke-linecap="round" stroke-linejoin="round"/>
=======
<svg width="24" height="24" viewBox="0 0 24 24" fill="none" xmlns="http://www.w3.org/2000/svg">
<path d="M12 14C13.1046 14 14 13.1046 14 12C14 10.8954 13.1046 10 12 10C10.8954 10 10 10.8954 10 12C10 13.1046 10.8954 14 12 14Z" stroke="#111827" stroke-width="1.5" stroke-linecap="round" stroke-linejoin="round"/>
<path d="M22 12C19.333 16.667 16 19 12 19C8 19 4.667 16.667 2 12C4.667 7.333 8 5 12 5C16 5 19.333 7.333 22 12Z" stroke="#111827" stroke-width="1.5" stroke-linecap="round" stroke-linejoin="round"/>
>>>>>>> main
</svg>
